<?xml version="1.0" encoding="UTF-8" standalone="no"?>
<!DOCTYPE svg PUBLIC "-//W3C//DTD SVG 1.1//EN"
 "http://www.w3.org/Graphics/SVG/1.1/DTD/svg11.dtd">
<!-- Generated by graphviz version 2.49.3 (20211023.0002)
 -->
<!-- Title: G Pages: 1 -->
<svg width="478pt" height="272pt"
 viewBox="0.00 0.00 478.00 272.00" xmlns="http://www.w3.org/2000/svg" xmlns:xlink="http://www.w3.org/1999/xlink">
<g id="graph0" class="graph" transform="scale(1 1) rotate(0) translate(4 268)">
<title>G</title>
<polygon fill="white" stroke="transparent" points="-4,4 -4,-268 474,-268 474,4 -4,4"/>
<!-- source1 -->
<g id="node1" class="node">
<title>source1</title>
<polygon fill="none" stroke="black" points="8.5,-239 8.5,-260 213.5,-260 213.5,-239 8.5,-239"/>
<text text-anchor="start" x="11.5" y="-245.8" font-family="Times New Roman,serif" font-size="14.00">struct ReadImage : Source&lt;Image&gt;</text>
<polygon fill="lightblue" stroke="transparent" points="8.5,-218 8.5,-239 213.5,-239 213.5,-218 8.5,-218"/>
<polygon fill="none" stroke="black" points="8.5,-218 8.5,-239 213.5,-239 213.5,-218 8.5,-218"/>
<text text-anchor="start" x="71" y="-224.8" font-family="Times New Roman,serif" font-size="14.00">Output: Image</text>
</g>
<!-- component -->
<g id="node3" class="node">
<title>component</title>
<polygon fill="lightblue" stroke="transparent" points="36.5,-152.5 36.5,-173.5 230.5,-173.5 230.5,-152.5 36.5,-152.5"/>
<polygon fill="none" stroke="black" points="36.5,-152.5 36.5,-173.5 230.5,-173.5 230.5,-152.5 36.5,-152.5"/>
<text text-anchor="start" x="96.5" y="-159.3" font-family="Times New Roman,serif" font-size="14.00">Slot 0: Image</text>
<polygon fill="yellow" stroke="transparent" points="230.5,-152.5 230.5,-173.5 429.5,-173.5 429.5,-152.5 230.5,-152.5"/>
<polygon fill="none" stroke="black" points="230.5,-152.5 230.5,-173.5 429.5,-173.5 429.5,-152.5 230.5,-152.5"/>
<text text-anchor="start" x="290.5" y="-159.3" font-family="Times New Roman,serif" font-size="14.00">Slot 1: double</text>
<polygon fill="none" stroke="black" points="36.5,-131.5 36.5,-152.5 429.5,-152.5 429.5,-131.5 36.5,-131.5"/>
<text text-anchor="start" x="39.5" y="-138.3" font-family="Times New Roman,serif" font-size="14.00">struct RotateImage : Component&lt;std::tuple&lt;Image, double&gt;, Image&gt;</text>
<polygon fill="lightgreen" stroke="transparent" points="36.5,-110.5 36.5,-131.5 429.5,-131.5 429.5,-110.5 36.5,-110.5"/>
<polygon fill="none" stroke="black" points="36.5,-110.5 36.5,-131.5 429.5,-131.5 429.5,-110.5 36.5,-110.5"/>
<text text-anchor="start" x="193" y="-117.3" font-family="Times New Roman,serif" font-size="14.00">Output: Image</text>
</g>
<!-- source1&#45;&gt;component -->
<g id="edge1" class="edge">
<title>source1&#45;&gt;component:slot0</title>
<path fill="none" stroke="black" d="M123.75,-213.7C127.58,-205.05 131.15,-194.91 132.69,-184.69"/>
<polygon fill="black" stroke="black" points="136.2,-184.74 133.5,-174.5 129.22,-184.19 136.2,-184.74"/>
</g>
<!-- source2 -->
<g id="node2" class="node">
<title>source2</title>
<polygon fill="none" stroke="black" points="247.5,-239 247.5,-260 462.5,-260 462.5,-239 247.5,-239"/>
<text text-anchor="start" x="250.5" y="-245.8" font-family="Times New Roman,serif" font-size="14.00">struct GetRotation : Source&lt;double&gt;</text>
<polygon fill="yellow" stroke="transparent" points="247.5,-218 247.5,-239 462.5,-239 462.5,-218 247.5,-218"/>
<polygon fill="none" stroke="black" points="247.5,-218 247.5,-239 462.5,-239 462.5,-218 247.5,-218"/>
<text text-anchor="start" x="312.5" y="-224.8" font-family="Times New Roman,serif" font-size="14.00">Output: double</text>
</g>
<!-- source2&#45;&gt;component -->
<g id="edge2" class="edge">
<title>source2&#45;&gt;component:slot1</title>
<path fill="none" stroke="black" d="M340.68,-213.76C336.68,-205.12 332.95,-194.98 331.34,-184.73"/>
<polygon fill="black" stroke="black" points="334.81,-184.18 330.5,-174.5 327.83,-184.75 334.81,-184.18"/>
</g>
<!-- sink -->
<g id="node4" class="node">
<title>sink</title>
<polygon fill="lightgreen" stroke="transparent" points="136.5,-45.5 136.5,-66.5 328.5,-66.5 328.5,-45.5 136.5,-45.5"/>
<polygon fill="none" stroke="black" points="136.5,-45.5 136.5,-66.5 328.5,-66.5 328.5,-45.5 136.5,-45.5"/>
<text text-anchor="start" x="195.5" y="-52.3" font-family="Times New Roman,serif" font-size="14.00">Slot 0: Image</text>
<polygon fill="none" stroke="black" points="136.5,-24.5 136.5,-45.5 328.5,-45.5 328.5,-24.5 136.5,-24.5"/>
<text text-anchor="start" x="139.5" y="-31.3" font-family="Times New Roman,serif" font-size="14.00">struct WriteImage : Sink&lt;Image&gt;</text>
<polygon fill="grey" stroke="transparent" points="136.5,-3.5 136.5,-24.5 328.5,-24.5 328.5,-3.5 136.5,-3.5"/>
<polygon fill="none" stroke="black" points="136.5,-3.5 136.5,-24.5 328.5,-24.5 328.5,-3.5 136.5,-3.5"/>
<text text-anchor="start" x="197" y="-10.3" font-family="Times New Roman,serif" font-size="14.00">Output: void</text>
</g>
<!-- component&#45;&gt;sink -->
<g id="edge3" class="edge">
<title>component&#45;&gt;sink</title>
<path fill="none" stroke="black" d="M232.5,-106.83C232.5,-98.67 232.5,-89.87 232.5,-81.34"/>
<polygon fill="black" stroke="black" points="236,-81.14 232.5,-71.14 229,-81.14 236,-81.14"/>
</g>
</g>
</svg>
