<?xml version="1.0" encoding="UTF-8" standalone="no"?>
<!DOCTYPE svg PUBLIC "-//W3C//DTD SVG 1.1//EN"
 "http://www.w3.org/Graphics/SVG/1.1/DTD/svg11.dtd">
<!-- Generated by graphviz version 2.49.3 (20211023.0002)
 -->
<!-- Title: G Pages: 1 -->
<svg width="340pt" height="516pt"
 viewBox="0.00 0.00 340.00 516.40" xmlns="http://www.w3.org/2000/svg" xmlns:xlink="http://www.w3.org/1999/xlink">
<g id="graph0" class="graph" transform="scale(1 1) rotate(0) translate(4 512.4)">
<title>G</title>
<polygon fill="white" stroke="transparent" points="-4,4 -4,-512.4 336,-512.4 336,4 -4,4"/>
<text text-anchor="middle" x="166" y="-493.2" font-family="Times New Roman,serif" font-size="14.00">Inheritance Diagram</text>
<g id="clust2" class="cluster">
<title>cluster_student</title>
<polygon fill="#88ff88" stroke="black" points="8,-103.4 8,-394.4 264,-394.4 264,-103.4 8,-103.4"/>
<text text-anchor="middle" x="136" y="-379.2" font-family="Times New Roman,serif" font-size="14.00">Types for you to define</text>
</g>
<g id="clust1" class="cluster">
<title>cluster_user</title>
<polygon fill="#ffff88" stroke="black" points="69,-8 69,-83.4 229,-83.4 229,-8 69,-8"/>
<text text-anchor="middle" x="149" y="-15.8" font-family="Times New Roman,serif" font-size="14.00">User Components</text>
</g>
<g id="clust3" class="cluster">
<title>cluster_standard</title>
<polygon fill="#8888ff" stroke="black" points="98,-402.4 98,-477.4 324,-477.4 324,-402.4 98,-402.4"/>
<text text-anchor="middle" x="211" y="-462.2" font-family="Times New Roman,serif" font-size="14.00">Types defined by the standard library</text>
</g>
<!-- other1 -->
<g id="node1" class="node">
<title>other1</title>
<ellipse fill="lightgrey" stroke="black" cx="203" cy="-57.2" rx="18.4" ry="18.4"/>
<text text-anchor="middle" x="203" y="-53.5" font-family="Times New Roman,serif" font-size="14.00">...</text>
</g>
<!-- other2 -->
<g id="node2" class="node">
<title>other2</title>
<ellipse fill="lightgrey" stroke="black" cx="149" cy="-57.2" rx="18.4" ry="18.4"/>
<text text-anchor="middle" x="149" y="-53.5" font-family="Times New Roman,serif" font-size="14.00">...</text>
</g>
<!-- other3 -->
<g id="node3" class="node">
<title>other3</title>
<ellipse fill="lightgrey" stroke="black" cx="95" cy="-57.2" rx="18.4" ry="18.4"/>
<text text-anchor="middle" x="95" y="-53.5" font-family="Times New Roman,serif" font-size="14.00">...</text>
</g>
<!-- PipelineError -->
<g id="node4" class="node">
<title>PipelineError</title>
<polygon fill="lightgrey" stroke="black" points="255.5,-363.4 166.5,-363.4 166.5,-327.4 255.5,-327.4 255.5,-363.4"/>
<text text-anchor="middle" x="211" y="-341.7" font-family="Times New Roman,serif" font-size="14.00">PipelineError</text>
</g>
<!-- Pipeline -->
<g id="node5" class="node">
<title>Pipeline</title>
<polygon fill="lightgrey" stroke="black" points="148,-363.4 88,-363.4 88,-327.4 148,-327.4 148,-363.4"/>
<text text-anchor="middle" x="118" y="-341.7" font-family="Times New Roman,serif" font-size="14.00">Pipeline</text>
</g>
<!-- Node -->
<g id="node6" class="node">
<title>Node</title>
<polygon fill="lightgrey" stroke="black" points="70,-363.4 16,-363.4 16,-327.4 70,-327.4 70,-363.4"/>
<text text-anchor="middle" x="43" y="-341.7" font-family="Times New Roman,serif" font-size="14.00">Node</text>
</g>
<!-- Producer -->
<g id="node7" class="node">
<title>Producer</title>
<polygon fill="lightgrey" stroke="black" points="117.5,-291.4 22.5,-291.4 22.5,-255.4 117.5,-255.4 117.5,-291.4"/>
<text text-anchor="middle" x="70" y="-269.7" font-family="Times New Roman,serif" font-size="14.00">Producer&lt;O&gt;</text>
</g>
<!-- Node&#45;&gt;Producer -->
<g id="edge2" class="edge">
<title>Node&#45;&gt;Producer</title>
<path fill="none" stroke="black" d="M49.67,-327.09C52.71,-319.21 56.38,-309.7 59.76,-300.94"/>
<polygon fill="black" stroke="black" points="63.07,-302.09 63.4,-291.5 56.54,-299.57 63.07,-302.09"/>
</g>
<!-- Component -->
<g id="node8" class="node">
<title>Component</title>
<polygon fill="lightgrey" stroke="black" points="174,-219.4 52,-219.4 52,-183.4 174,-183.4 174,-219.4"/>
<text text-anchor="middle" x="113" y="-197.7" font-family="Times New Roman,serif" font-size="14.00">Component&lt;I, O&gt;</text>
</g>
<!-- Producer&#45;&gt;Component -->
<g id="edge3" class="edge">
<title>Producer&#45;&gt;Component</title>
<path fill="none" stroke="black" d="M80.63,-255.09C85.63,-246.96 91.69,-237.09 97.21,-228.1"/>
<polygon fill="black" stroke="black" points="100.24,-229.85 102.49,-219.5 94.28,-226.19 100.24,-229.85"/>
</g>
<!-- Component&#45;&gt;other1 -->
<g id="edge4" class="edge">
<title>Component&#45;&gt;other1</title>
<path fill="none" stroke="black" d="M149.42,-183.22C163.99,-174.51 179.53,-162.54 189,-147.4 200.46,-129.06 203.64,-104.59 204.13,-85.92"/>
<polygon fill="black" stroke="black" points="207.63,-85.69 204.15,-75.68 200.63,-85.68 207.63,-85.69"/>
</g>
<!-- Source -->
<g id="node9" class="node">
<title>Source</title>
<polygon fill="lightgrey" stroke="black" points="99.5,-147.4 16.5,-147.4 16.5,-111.4 99.5,-111.4 99.5,-147.4"/>
<text text-anchor="middle" x="58" y="-125.7" font-family="Times New Roman,serif" font-size="14.00">Source&lt;O&gt;</text>
</g>
<!-- Component&#45;&gt;Source -->
<g id="edge5" class="edge">
<title>Component&#45;&gt;Source</title>
<path fill="none" stroke="black" d="M99.4,-183.09C92.88,-174.79 84.93,-164.67 77.75,-155.54"/>
<polygon fill="black" stroke="black" points="80.37,-153.2 71.44,-147.5 74.87,-157.53 80.37,-153.2"/>
</g>
<!-- Sink -->
<g id="node10" class="node">
<title>Sink</title>
<polygon fill="lightgrey" stroke="black" points="180,-147.4 118,-147.4 118,-111.4 180,-111.4 180,-147.4"/>
<text text-anchor="middle" x="149" y="-125.7" font-family="Times New Roman,serif" font-size="14.00">Sink&lt;I&gt;</text>
</g>
<!-- Component&#45;&gt;Sink -->
<g id="edge6" class="edge">
<title>Component&#45;&gt;Sink</title>
<path fill="none" stroke="black" d="M121.9,-183.09C126,-175.13 130.95,-165.5 135.49,-156.66"/>
<polygon fill="black" stroke="black" points="138.74,-157.99 140.2,-147.5 132.52,-154.79 138.74,-157.99"/>
</g>
<!-- Source&#45;&gt;other3 -->
<g id="edge8" class="edge">
<title>Source&#45;&gt;other3</title>
<path fill="none" stroke="black" d="M67.15,-111.04C71.64,-102.52 77.13,-92.1 82.05,-82.77"/>
<polygon fill="black" stroke="black" points="85.15,-84.39 86.72,-73.91 78.96,-81.13 85.15,-84.39"/>
</g>
<!-- Sink&#45;&gt;other2 -->
<g id="edge7" class="edge">
<title>Sink&#45;&gt;other2</title>
<path fill="none" stroke="black" d="M149,-111.04C149,-103.51 149,-94.49 149,-86.06"/>
<polygon fill="black" stroke="black" points="152.5,-85.84 149,-75.84 145.5,-85.84 152.5,-85.84"/>
</g>
<!-- exception -->
<g id="node11" class="node">
<title>exception</title>
<polygon fill="lightgrey" stroke="black" points="258,-446.4 164,-446.4 164,-410.4 258,-410.4 258,-446.4"/>
<text text-anchor="middle" x="211" y="-424.7" font-family="Times New Roman,serif" font-size="14.00">std::exception</text>
</g>
<!-- exception&#45;&gt;PipelineError -->
<g id="edge1" class="edge">
<title>exception&#45;&gt;PipelineError</title>
<path fill="none" stroke="black" d="M211,-410.22C211,-399.59 211,-385.7 211,-373.6"/>
<polygon fill="black" stroke="black" points="214.5,-373.55 211,-363.55 207.5,-373.55 214.5,-373.55"/>
</g>
</g>
</svg>
