<?xml version="1.0" encoding="UTF-8" standalone="no"?>
<!DOCTYPE svg PUBLIC "-//W3C//DTD SVG 1.1//EN"
 "http://www.w3.org/Graphics/SVG/1.1/DTD/svg11.dtd">
<!-- Generated by graphviz version 2.49.2 (20211016.1639)
 -->
<!-- Title: G Pages: 1 -->
<svg width="124pt" height="188pt"
 viewBox="0.00 0.00 123.59 188.00" xmlns="http://www.w3.org/2000/svg" xmlns:xlink="http://www.w3.org/1999/xlink">
<g id="graph0" class="graph" transform="scale(1 1) rotate(0) translate(4 184)">
<title>G</title>
<polygon fill="white" stroke="transparent" points="-4,4 -4,-184 119.59,-184 119.59,4 -4,4"/>
<!-- 1 hello -->
<g id="node1" class="node">
<title>1 hello</title>
<ellipse fill="none" stroke="black" cx="38.35" cy="-18" rx="34.39" ry="18"/>
<text text-anchor="middle" x="38.35" y="-14.3" font-family="Times New Roman,serif" font-size="14.00">1 hello</text>
</g>
<!-- 2 world -->
<g id="node2" class="node">
<title>2 world</title>
<ellipse fill="none" stroke="black" cx="38.35" cy="-162" rx="38.19" ry="18"/>
<text text-anchor="middle" x="38.35" y="-158.3" font-family="Times New Roman,serif" font-size="14.00">2 world</text>
</g>
<!-- 2 world&#45;&gt;1 hello -->
<g id="edge1" class="edge">
<title>2 world&#45;&gt;1 hello</title>
<path fill="none" stroke="black" d="M31.86,-144.1C28.27,-133.84 24.17,-120.36 22.35,-108 20.01,-92.17 20.01,-87.83 22.35,-72 23.64,-63.21 26.09,-53.86 28.69,-45.5"/>
<polygon fill="black" stroke="black" points="32.05,-46.49 31.86,-35.9 25.4,-44.29 32.05,-46.49"/>
</g>
<!-- 4 foobar -->
<g id="node3" class="node">
<title>4 foobar</title>
<ellipse fill="none" stroke="black" cx="73.35" cy="-90" rx="42.49" ry="18"/>
<text text-anchor="middle" x="73.35" y="-86.3" font-family="Times New Roman,serif" font-size="14.00">4 foobar</text>
</g>
<!-- 2 world&#45;&gt;4 foobar -->
<g id="edge2" class="edge">
<title>2 world&#45;&gt;4 foobar</title>
<path fill="none" stroke="black" d="M46.64,-144.41C50.72,-136.25 55.74,-126.22 60.31,-117.07"/>
<polygon fill="black" stroke="black" points="63.53,-118.47 64.87,-107.96 57.27,-115.34 63.53,-118.47"/>
</g>
<!-- 4 foobar&#45;&gt;1 hello -->
<g id="edge3" class="edge">
<title>4 foobar&#45;&gt;1 hello</title>
<path fill="none" stroke="black" d="M64.87,-72.05C60.79,-63.89 55.8,-53.91 51.26,-44.82"/>
<polygon fill="black" stroke="black" points="54.34,-43.17 46.74,-35.79 48.08,-46.3 54.34,-43.17"/>
</g>
</g>
</svg>
